<svg width="90" height="90" viewBox="0 0 90 90" fill="none" xmlns="http://www.w3.org/2000/svg">
<rect width="90" height="90" rx="30" fill="white"/>
<path d="M47.0002 77.0003C64.6734 77.0003 79.0003 62.6734 79.0003 45.0002C79.0003 27.327 64.6734 13 47.0002 13C29.327 13 15 27.327 15 45.0002C15 62.6734 29.327 77.0003 47.0002 77.0003Z" fill="#EEDBF0"/>
<path d="M74.791 76.8965H78.8818" stroke="#0B162B" stroke-width="0.889305" stroke-miterlimit="10" stroke-linecap="round"/>
<path d="M19.7578 76.8965H73.0124" stroke="#0B162B" stroke-width="0.889305" stroke-miterlimit="10" stroke-linecap="round"/>
<path d="M15.0447 76.8965H17.7126" stroke="#0B162B" stroke-width="0.889305" stroke-miterlimit="10" stroke-linecap="round"/>
<path d="M51.9657 53.9376H43.6507C37.3366 53.9376 32.3417 48.6018 32.7122 42.3026C32.979 37.7671 33.6756 33.6318 34.2241 32.1645C35.5135 28.7407 40.627 20.5739 51.9953 24.5461C51.9953 24.5461 59.4803 22.9009 61.6146 32.4757C62.2668 35.3956 62.7263 38.8787 62.9338 42.347C63.3191 48.6463 58.2649 53.9376 51.9657 53.9376Z" fill="#FFCC01" stroke="#0B162B" stroke-width="0.889305" stroke-miterlimit="10" stroke-linecap="round"/>
<path d="M44.6731 33.3057C45.8737 33.0834 47.2224 32.6832 48.675 31.9866" stroke="#0B162B" stroke-width="0.444652" stroke-miterlimit="10" stroke-linecap="round"/>
<path d="M42.687 33.543C43.0131 33.5282 43.3688 33.4986 43.7245 33.4541" stroke="#0B162B" stroke-width="0.444652" stroke-miterlimit="10" stroke-linecap="round"/>
<path d="M55.3301 32.9353C55.6413 33.5726 56.2046 34.2248 56.8419 34.7139C57.1828 34.9807 57.4496 35.3068 57.6423 35.6921" fill="white"/>
<path d="M55.3301 32.9353C55.6413 33.5726 56.2046 34.2248 56.8419 34.7139C57.1828 34.9807 57.4496 35.3068 57.6423 35.6921" stroke="#0B162B" stroke-width="0.444652" stroke-miterlimit="10" stroke-linecap="round"/>
<path d="M35.7358 47.757C35.0392 46.8084 34.5649 45.6819 34.4019 44.4666" stroke="#0B162B" stroke-width="0.444652" stroke-miterlimit="10" stroke-linecap="round"/>
<path d="M40.0487 42.9104C39.6188 43.3105 38.937 43.2661 38.5368 42.8362L37.529 41.7246C37.1288 41.2948 37.1732 40.613 37.6031 40.2128C38.0329 39.8126 38.7147 39.8571 39.1149 40.2869L40.1228 41.3985C40.523 41.8432 40.4933 42.525 40.0487 42.9104Z" fill="#FCF5F2" stroke="#0B162B" stroke-width="0.741087" stroke-miterlimit="10" stroke-linecap="round"/>
<path d="M55.1966 34.625C56.1748 35.3809 56.7677 36.5518 56.7677 37.782V38.7454C56.7677 41.3244 56.0415 43.8589 54.6037 45.9933C53.7293 47.2828 52.5732 48.5426 51.0613 49.343C50.1128 49.8469 49.0159 50.1582 47.7709 50.1878H47.6672C46.3629 50.173 45.2216 49.8469 44.2137 49.3133C42.9835 48.6612 41.9904 47.7126 41.1901 46.7047C39.4115 44.437 38.5073 41.5912 38.5073 38.7158V38.1377C38.5073 36.5518 39.7968 35.0993 41.3679 34.877C43.5319 34.5805 48.1563 35.0548 51.9506 31.8237C52.2915 31.5272 52.8103 31.6458 53.003 32.046C53.4625 32.965 54.2628 33.9135 55.1966 34.625Z" fill="#FCF5F2" stroke="#0B162B" stroke-width="0.889305" stroke-miterlimit="10" stroke-linecap="round"/>
<path d="M43.9021 39.4125C44.096 39.4125 44.2364 39.4869 44.3294 39.5951C44.4237 39.7049 44.4727 39.8537 44.4727 40.0054C44.4727 40.157 44.4237 40.3058 44.3294 40.4156C44.2364 40.5238 44.096 40.5982 43.9021 40.5982C43.7082 40.5982 43.5677 40.5238 43.4747 40.4156C43.3804 40.3058 43.3314 40.157 43.3314 40.0054C43.3314 39.8537 43.3804 39.7049 43.4747 39.5951C43.5677 39.4869 43.7082 39.4125 43.9021 39.4125Z" fill="#0B162B" stroke="#0B162B" stroke-width="0.148217"/>
<path d="M51.3576 39.4125C51.5515 39.4125 51.692 39.4869 51.785 39.5951C51.8793 39.7049 51.9283 39.8537 51.9283 40.0054C51.9283 40.157 51.8793 40.3058 51.785 40.4156C51.692 40.5238 51.5515 40.5982 51.3576 40.5982C51.1637 40.5982 51.0233 40.5238 50.9303 40.4156C50.836 40.3058 50.787 40.157 50.787 40.0054C50.787 39.8537 50.836 39.7049 50.9303 39.5951C51.0233 39.4869 51.1637 39.4125 51.3576 39.4125Z" fill="#0B162B" stroke="#0B162B" stroke-width="0.148217"/>
<path d="M48.6603 41.7544C48.4973 42.0508 48.0971 42.2732 47.6228 42.2732C47.1633 42.2732 46.778 42.0657 46.6001 41.784" stroke="#0B162B" stroke-width="0.444652" stroke-miterlimit="10" stroke-linecap="round"/>
<path d="M42.4053 38.0196C42.4053 38.0196 43.7689 37.3823 45.0435 38.0196" stroke="#0B162B" stroke-width="0.59287" stroke-miterlimit="10" stroke-linecap="round"/>
<path d="M52.8399 38.0193C52.8399 38.0193 51.4763 37.382 50.2017 38.0193" stroke="#0B162B" stroke-width="0.59287" stroke-miterlimit="10" stroke-linecap="round"/>
<path d="M42.4646 43.2225C43.2586 43.2225 43.9023 42.7911 43.9023 42.2591C43.9023 41.727 43.2586 41.2957 42.4646 41.2957C41.6705 41.2957 41.0269 41.727 41.0269 42.2591C41.0269 42.7911 41.6705 43.2225 42.4646 43.2225Z" fill="#EEDBF0"/>
<path d="M52.7956 43.2217C53.5896 43.2217 54.2333 42.7904 54.2333 42.2583C54.2333 41.7263 53.5896 41.2949 52.7956 41.2949C52.0016 41.2949 51.3579 41.7263 51.3579 42.2583C51.3579 42.7904 52.0016 43.2217 52.7956 43.2217Z" fill="#EEDBF0"/>
<path d="M49.5792 44.5852L49.2828 45.3263L49.2531 45.4004C49.1938 45.5486 49.1049 45.6968 48.9715 45.9043C48.9271 45.9636 48.8826 46.0229 48.8381 46.0822C48.7195 46.2156 48.5565 46.349 48.3786 46.4527C48.3638 46.4675 48.349 46.4675 48.3194 46.4824C48.2453 46.5268 48.1711 46.5565 48.097 46.5861C48.0229 46.6158 47.934 46.6454 47.8451 46.675C47.771 46.7047 47.6968 46.7047 47.6227 46.7047C47.5486 46.7047 47.4745 46.6899 47.4004 46.675C47.3115 46.6454 47.2226 46.6158 47.1484 46.5861C47.0743 46.5565 47.0002 46.512 46.9261 46.4824C46.9113 46.4675 46.8965 46.4675 46.8668 46.4527C46.689 46.349 46.5259 46.2156 46.4074 46.0822C46.3481 46.0229 46.3036 45.9636 46.2591 45.8895C46.1406 45.7265 46.0516 45.5486 45.9923 45.4004L45.6663 44.5852C45.607 44.437 45.7107 44.2739 45.8738 44.2739H49.3717C49.5347 44.2739 49.6385 44.437 49.5792 44.5852Z" fill="#EEDBF0" stroke="#0B162B" stroke-width="0.59287" stroke-miterlimit="10" stroke-linecap="round"/>
<path d="M48.823 46.0972C48.7933 46.1416 48.7192 46.2157 48.6599 46.2602C48.5414 46.364 48.408 46.4381 48.2597 46.527C48.2449 46.5418 48.2153 46.5566 48.2005 46.5566C48.1412 46.5863 48.0819 46.6011 48.0226 46.6307C47.9633 46.6604 47.8892 46.6752 47.8151 46.7049C47.7558 46.7197 47.6965 46.7345 47.6372 46.7345C47.5779 46.7345 47.5187 46.7197 47.4594 46.7049C47.3853 46.69 47.3112 46.6604 47.2519 46.6307C47.1926 46.6011 47.1333 46.5863 47.074 46.5566C47.0592 46.5418 47.0295 46.5418 47.0147 46.527C46.8665 46.4381 46.7035 46.3491 46.5997 46.2454C46.5552 46.2009 46.496 46.1713 46.4663 46.112C46.5552 45.8155 46.911 45.5339 47.237 45.5339C47.4297 45.5339 47.6224 45.608 47.741 45.7414C47.7558 45.7563 47.7558 45.7563 47.7706 45.7414C47.8744 45.6673 47.993 45.6229 48.1412 45.6229C48.408 45.6229 48.734 45.8452 48.823 46.0972Z" fill="#EEDBF0" stroke="#0B162B" stroke-width="0.444652" stroke-miterlimit="10" stroke-linecap="round"/>
<path d="M47.7261 45.7266C47.7261 45.7266 47.8743 45.8451 47.9484 46.0823L47.7261 45.7266Z" fill="#CB7272"/>
<path d="M47.7261 45.7266C47.7261 45.7266 47.8743 45.8451 47.9484 46.0823" stroke="#0B162B" stroke-width="0.444652" stroke-miterlimit="10" stroke-linecap="round"/>
<path d="M57.0791 76.6889H38.1814C36.1064 76.6889 34.4019 74.9844 34.4019 72.9093V61.0668C34.4019 55.6124 38.8336 51.1807 44.288 51.1807H50.9874C56.4418 51.1807 60.8735 55.6124 60.8735 61.0668V72.9093C60.8587 74.9844 59.169 76.6889 57.0791 76.6889Z" fill="#EEDBF0" stroke="#0B162B" stroke-width="0.889305" stroke-miterlimit="10" stroke-linecap="round"/>
<path d="M51.0613 49.3431V52.011C51.0613 52.1 51.0169 52.1889 50.9576 52.2334C47.934 54.6938 44.9548 52.6928 44.3471 52.2334C44.273 52.1741 44.2285 52.0851 44.2285 51.9962V49.3135C45.2216 49.8322 46.3628 50.1731 47.682 50.188H47.7857C49.0159 50.1583 50.0979 49.8322 51.0613 49.3431Z" fill="#FCF5F2" stroke="#0B162B" stroke-width="0.889305" stroke-miterlimit="10" stroke-linecap="round"/>
<path d="M60.6807 40.7758V41.9615C60.6807 43.6364 59.3171 45 57.6422 45H55.3745V44.6442C56.2935 42.8212 56.7529 40.8054 56.7529 38.7452V37.7373H57.6422C59.3171 37.7373 60.6807 39.1009 60.6807 40.7758Z" fill="#4B525A" stroke="#0B162B" stroke-width="0.889305" stroke-miterlimit="10" stroke-linecap="round"/>
<path d="M49.9795 47.0306H55.6859C56.4418 47.0306 57.0495 46.4229 57.0495 45.667V45.578V45" stroke="#0B162B" stroke-width="0.889305" stroke-miterlimit="10" stroke-linecap="round"/>
<path d="M50.3649 47.6827H49.7127C49.357 47.6827 49.0605 47.3863 49.0605 47.0306C49.0605 46.6749 49.357 46.3784 49.7127 46.3784H50.3649C50.7206 46.3784 51.017 46.6749 51.017 47.0306C51.017 47.3863 50.7206 47.6827 50.3649 47.6827Z" fill="#4B525A" stroke="#0B162B" stroke-width="0.889305" stroke-miterlimit="10" stroke-linecap="round"/>
<path d="M36.5954 16.7053V25.7169C36.5954 27.0509 35.5134 28.1181 34.1942 28.1181V31.3196C34.1942 31.4974 34.0015 31.6012 33.8533 31.5122L28.5027 28.1181H17.7717C16.4378 28.1181 15.3706 27.0361 15.3706 25.7169V16.7053C15.3706 15.3714 16.4526 14.3042 17.7717 14.3042H34.1942C35.5282 14.3042 36.5954 15.3714 36.5954 16.7053Z" fill="#D3D5E7"/>
<path d="M35.4839 15.4899V24.1755C35.4839 25.4501 34.4463 26.4877 33.1717 26.4877V29.5706C33.1717 29.7336 32.979 29.8374 32.8456 29.7484L27.6876 26.4877H17.3569C16.0822 26.4877 15.0447 25.4501 15.0447 24.1755V15.4899C15.0447 14.2153 16.0822 13.1777 17.3569 13.1777H33.1717C34.4463 13.1777 35.4839 14.2153 35.4839 15.4899Z" fill="white" stroke="#0B162B" stroke-width="0.741087" stroke-miterlimit="10" stroke-linecap="round"/>
<path d="M17.2383 21.5967H20.8548" stroke="#0B162B" stroke-width="0.59287" stroke-miterlimit="10" stroke-linecap="round"/>
<path d="M17.2383 20.218H24.4713" stroke="#0B162B" stroke-width="0.59287" stroke-miterlimit="10" stroke-linecap="round"/>
<path d="M17.2383 18.8398H24.4713" stroke="#0B162B" stroke-width="0.59287" stroke-miterlimit="10" stroke-linecap="round"/>
<path d="M17.2393 17.4614H24.4723" stroke="#0B162B" stroke-width="0.59287" stroke-miterlimit="10" stroke-linecap="round"/>
<path d="M32.2082 24.1905H28.0877C27.4504 24.1905 26.9316 23.6717 26.9316 23.0344V17.0316C26.9316 16.3942 27.4504 15.8755 28.0877 15.8755H32.2082C32.8455 15.8755 33.3643 16.3942 33.3643 17.0316V23.0344C33.3791 23.6717 32.8603 24.1905 32.2082 24.1905Z" fill="#ECECEE"/>
<path d="M31.6598 22.9303H28.7992C28.6954 22.9303 28.6213 22.8562 28.6213 22.7524V21.5667C28.6213 20.7218 29.3031 20.04 30.148 20.04H30.3258C31.1707 20.04 31.8525 20.7218 31.8525 21.5667V22.7524C31.8377 22.8414 31.7487 22.9303 31.6598 22.9303Z" fill="#FFCC01" stroke="#0B162B" stroke-width="0.59287" stroke-miterlimit="10" stroke-linecap="round"/>
<path d="M30.222 19.0025C30.6967 19.0025 31.0816 18.6176 31.0816 18.1429C31.0816 17.6681 30.6967 17.2832 30.222 17.2832C29.7472 17.2832 29.3623 17.6681 29.3623 18.1429C29.3623 18.6176 29.7472 19.0025 30.222 19.0025Z" fill="#FCF5F2" stroke="#0B162B" stroke-width="0.59287" stroke-miterlimit="10" stroke-linecap="round"/>
<path d="M16.082 15.2677C16.2154 14.8824 16.4822 14.5711 16.8231 14.3784" stroke="#0B162B" stroke-width="0.444652" stroke-miterlimit="10" stroke-linecap="round"/>
<path d="M65.646 76.8668H29.6291C27.9395 76.8668 26.561 75.4884 26.561 73.7987V72.7315C26.561 72.6574 26.6203 72.5981 26.6944 72.5981H68.5807C68.6548 72.5981 68.7141 72.6574 68.7141 72.7315V73.7987C68.7141 75.4884 67.3357 76.8668 65.646 76.8668Z" fill="#1E88F5" stroke="#0B162B" stroke-width="0.889305" stroke-miterlimit="10" stroke-linecap="round"/>
<path d="M62.489 76.8669H32.9048C31.3634 76.8669 30.1035 75.607 30.1035 74.0655V56.2943C30.1035 55.0344 31.1262 54.0117 32.3861 54.0117H63.0078C64.2676 54.0117 65.2903 55.0344 65.2903 56.2943V74.0655C65.2903 75.607 64.0305 76.8669 62.489 76.8669Z" fill="#1E88F5" stroke="#0B162B" stroke-width="0.889305" stroke-miterlimit="10" stroke-linecap="round"/>
<path opacity="0.4" d="M50.2165 65.7504C50.2165 66.7879 49.594 67.6772 48.7047 68.0478C48.764 67.9144 48.7937 67.7662 48.7937 67.618C48.7937 66.9806 48.2749 66.4619 47.6376 66.4619C47.0002 66.4619 46.4815 66.9806 46.4815 67.618C46.4815 67.7365 46.4963 67.8551 46.5407 67.9588C45.7404 67.5438 45.2068 66.699 45.2068 65.7356C45.2068 64.3423 46.3332 63.2307 47.7117 63.2307C49.0901 63.2307 50.2165 64.3572 50.2165 65.7504Z" fill="#D3D5E7"/>
<path opacity="0.7" d="M48.779 67.618C48.779 67.7662 48.7493 67.9144 48.6901 68.0478C48.3788 68.1812 48.0527 68.2553 47.697 68.2553C47.2672 68.2553 46.8818 68.1516 46.5261 67.9589C46.4964 67.8552 46.4668 67.7366 46.4668 67.618C46.4668 66.9807 46.9856 66.4619 47.6229 66.4619C48.2751 66.4767 48.779 66.9807 48.779 67.618Z" fill="#ECECEE"/>
<path d="M62.4297 55.0195C63.2745 55.0195 63.9711 55.7162 63.9711 56.561" stroke="#0B162B" stroke-width="0.444652" stroke-miterlimit="10" stroke-linecap="round"/>
<path d="M63.9858 64.2979V66.9806" stroke="#0B162B" stroke-width="0.444652" stroke-miterlimit="10" stroke-linecap="round"/>
<path d="M36.1802 63.0974L37.1584 63.8533" stroke="#0B162B" stroke-width="0.370544" stroke-miterlimit="10" stroke-linecap="round"/>
<path d="M36.1802 62.1785L38.1218 63.6606" stroke="#0B162B" stroke-width="0.370544" stroke-miterlimit="10" stroke-linecap="round"/>
<path d="M37.5884 62.2969L38.122 62.7119" stroke="#0B162B" stroke-width="0.370544" stroke-miterlimit="10" stroke-linecap="round"/>
<path d="M68.9364 53.6858L67.6914 54.0415" stroke="white" stroke-width="1.03752" stroke-miterlimit="10" stroke-linecap="round"/>
<path d="M67.6027 51.8921L66.6096 52.9444" stroke="white" stroke-width="1.03752" stroke-miterlimit="10" stroke-linecap="round"/>
<path d="M65.3347 52.0404L65.557 50.6917" stroke="white" stroke-width="1.03752" stroke-miterlimit="10" stroke-linecap="round"/>
</svg>
